<svg width="1440" height="909" viewBox="0 0 1440 909" fill="none" xmlns="http://www.w3.org/2000/svg">
<path d="M656.214 312.104C656.214 308.642 654.331 305.646 651.554 304.009C662.935 293.54 670 281.433 670 264.153C670 213.219 607.987 203.187 607.987 179.758C607.987 203.187 545.975 213.219 545.975 264.153C545.975 281.432 553.038 293.539 564.421 304.007C561.644 305.644 559.761 308.638 559.761 312.104C559.761 317.132 563.696 321.2 568.652 321.469V371.795C563.696 372.063 559.761 376.132 559.761 381.16C559.761 386.19 563.696 390.263 568.652 390.53V416.806H452.401V378.481H439.058V352.093H437.953C461.473 329.161 475.881 302.505 475.881 265.293C475.881 160.257 359.819 131.772 338.388 87.6127C342.152 88.5501 346.029 89.0572 349.94 89.0572C364.549 89.0572 378.193 82.5446 387.374 71.1895C390.567 67.2319 393.111 62.8248 394.935 58.0873L395.218 57.351L394.556 57.7812C386.834 62.7916 377.865 65.4411 368.62 65.4411C357.775 65.4411 347.147 61.6689 338.69 54.8205C322.624 41.7934 316.785 20.059 324.165 0.734507L324.446 0L323.786 0.428461C319.541 3.18636 315.765 6.59482 312.564 10.5577C304.475 20.5609 300.76 33.1175 302.107 45.9172C303.451 58.7168 309.699 70.2259 319.692 78.3229C323.557 81.4551 327.889 83.9157 332.474 85.7082C313.524 130.973 194.117 158.755 194.117 265.292C194.117 302.501 208.52 329.159 232.042 352.091H230.936V378.479H217.597V416.805H101.343V390.411C106.304 390.144 110.251 386.073 110.251 381.047C110.251 376.019 106.304 371.947 101.343 371.682V321.352C106.304 321.084 110.251 317.015 110.251 311.987C110.251 308.526 108.361 305.532 105.579 303.897C116.956 293.432 124.025 281.325 124.025 264.045C124.025 213.11 62.0055 203.072 62.0055 179.641C62.0055 203.07 0 213.11 0 264.045C0 281.327 7.06863 293.434 18.4497 303.897C15.6691 305.534 13.7827 308.526 13.7827 311.987C13.7827 317.013 17.7266 321.083 22.68 321.352V371.682C17.7266 371.951 13.7827 376.02 13.7827 381.047C13.7827 386.071 17.7266 390.142 22.68 390.411V416.805H22.6259V909H99.8743V523.842C99.8743 495.964 139.767 477.699 139.767 477.699C139.767 477.699 179.657 495.962 179.657 523.842V909H279.061V495.126C279.061 456.036 335.001 430.428 335.001 430.428C335.001 430.428 390.937 456.038 390.937 495.126V909H490.341V523.842C490.341 495.964 530.231 477.699 530.231 477.699C530.231 477.699 570.124 495.962 570.124 523.842V909H647.372V416.806H647.322V390.53C652.275 390.265 656.216 386.192 656.216 381.16C656.216 376.132 652.275 372.061 647.322 371.795V321.471C652.273 321.203 656.214 317.132 656.214 312.104Z" fill="#E2E0D2"/>
<path d="M1426.21 312.104C1426.21 308.642 1424.33 305.646 1421.55 304.009C1432.93 293.54 1440 281.433 1440 264.153C1440 213.219 1377.99 203.187 1377.99 179.758C1377.99 203.187 1315.98 213.219 1315.98 264.153C1315.98 281.432 1323.04 293.539 1334.42 304.007C1331.64 305.644 1329.76 308.638 1329.76 312.104C1329.76 317.132 1333.7 321.2 1338.65 321.469V371.795C1333.7 372.063 1329.76 376.132 1329.76 381.16C1329.76 386.19 1333.7 390.263 1338.65 390.53V416.806H1222.4V378.481H1209.06V352.093H1207.95C1231.47 329.161 1245.88 302.505 1245.88 265.293C1245.88 160.257 1129.82 131.772 1108.39 87.6127C1112.15 88.5501 1116.03 89.0572 1119.94 89.0572C1134.55 89.0572 1148.19 82.5446 1157.37 71.1895C1160.57 67.2319 1163.11 62.8248 1164.93 58.0873L1165.22 57.351L1164.56 57.7812C1156.83 62.7916 1147.87 65.4411 1138.62 65.4411C1127.78 65.4411 1117.15 61.6689 1108.69 54.8205C1092.62 41.7934 1086.79 20.059 1094.16 0.734507L1094.45 0L1093.79 0.428461C1089.54 3.18636 1085.77 6.59482 1082.56 10.5577C1074.47 20.5609 1070.76 33.1175 1072.11 45.9172C1073.45 58.7168 1079.7 70.2259 1089.69 78.3229C1093.56 81.4551 1097.89 83.9157 1102.47 85.7082C1083.52 130.973 964.117 158.755 964.117 265.292C964.117 302.501 978.52 329.159 1002.04 352.091H1000.94V378.479H987.597V416.805H871.343V390.411C876.304 390.144 880.251 386.073 880.251 381.047C880.251 376.019 876.304 371.947 871.343 371.682V321.352C876.304 321.084 880.251 317.015 880.251 311.987C880.251 308.526 878.361 305.532 875.579 303.897C886.956 293.432 894.025 281.325 894.025 264.045C894.025 213.11 832.005 203.072 832.005 179.641C832.005 203.07 770 213.11 770 264.045C770 281.327 777.069 293.434 788.45 303.897C785.669 305.534 783.783 308.526 783.783 311.987C783.783 317.013 787.727 321.083 792.68 321.352V371.682C787.727 371.951 783.783 376.02 783.783 381.047C783.783 386.071 787.727 390.142 792.68 390.411V416.805H792.626V909H869.874V523.842C869.874 495.964 909.767 477.699 909.767 477.699C909.767 477.699 949.657 495.962 949.657 523.842V909H1049.06V495.126C1049.06 456.036 1105 430.428 1105 430.428C1105 430.428 1160.94 456.038 1160.94 495.126V909H1260.34V523.842C1260.34 495.964 1300.23 477.699 1300.23 477.699C1300.23 477.699 1340.12 495.962 1340.12 523.842V909H1417.37V416.806H1417.32V390.53C1422.28 390.265 1426.22 386.192 1426.22 381.16C1426.22 376.132 1422.28 372.061 1417.32 371.795V321.471C1422.27 321.203 1426.21 317.132 1426.21 312.104Z" fill="#E2E0D2"/>
</svg>
