<svg width="162" height="43" viewBox="0 0 162 43" fill="none" xmlns="http://www.w3.org/2000/svg">
<circle cx="21" cy="21" r="21" fill="#D1CDB7"/>
<path d="M22.3318 28.9903V21.0404H24.7211L25.0379 18.2424H22.3318L22.3359 16.8419C22.3359 16.1122 22.4098 15.7213 23.5272 15.7213H25.0211V12.9229H22.6313C19.7606 12.9229 18.7504 14.2801 18.7504 16.5629V18.2427H16.9609V21.0409H18.7504V28.8776C19.4475 29.0079 20.1682 29.0767 20.9062 29.0767C21.3829 29.0767 21.8591 29.0479 22.3318 28.9903Z" fill="#1C3F39"/>
<circle cx="141" cy="22" r="21" fill="#D1CDB7"/>
<path d="M151.5 15.8352C150.719 16.1595 149.887 16.3745 149.019 16.4789C149.912 15.9744 150.593 15.1816 150.913 14.226C150.081 14.6958 149.162 15.0275 148.183 15.2127C147.393 14.4162 146.267 13.9229 145.039 13.9229C142.655 13.9229 140.736 15.7544 140.736 17.9998C140.736 18.3229 140.765 18.6336 140.836 18.9293C137.257 18.764 134.09 17.14 131.962 14.6659C131.591 15.276 131.373 15.9744 131.373 16.7262C131.373 18.1378 132.141 19.3891 133.285 20.1135C132.593 20.1011 131.915 19.911 131.34 19.6115C131.34 19.6239 131.34 19.6401 131.34 19.6562C131.34 21.6369 132.832 23.2821 134.789 23.6611C134.439 23.7518 134.057 23.7953 133.661 23.7953C133.385 23.7953 133.107 23.7804 132.845 23.7258C133.403 25.3399 134.986 26.5266 136.868 26.5651C135.404 27.6499 133.544 28.3035 131.53 28.3035C131.177 28.3035 130.839 28.2886 130.5 28.2476C132.407 29.4119 134.667 30.0767 137.105 30.0767C145.027 30.0767 149.358 23.8637 149.358 18.4782C149.358 18.2981 149.351 18.1241 149.342 17.9514C150.197 17.3773 150.915 16.6603 151.5 15.8352Z" fill="#1C3F39"/>
<circle cx="81" cy="22" r="21" fill="#F2AC0D"/>
<path d="M72.9238 15.7993C72.9238 15.2554 73.1148 14.8067 73.4969 14.4532C73.8789 14.0996 74.3755 13.9229 74.9867 13.9229C75.587 13.9229 76.0727 14.0969 76.4438 14.445C76.8258 14.804 77.0169 15.2717 77.0169 15.8483C77.0169 16.3704 76.8313 16.8055 76.4602 17.1536C76.0782 17.5126 75.5761 17.6921 74.954 17.6921H74.9376C74.3373 17.6921 73.8516 17.5126 73.4805 17.1536C73.1094 16.7946 72.9238 16.3432 72.9238 15.7993ZM73.1367 30.0767V19.1769H76.7713V30.0767H73.1367ZM78.7851 30.0767H82.4197V23.9905C82.4197 23.6097 82.4633 23.316 82.5506 23.1093C82.7034 22.7395 82.9354 22.4267 83.2465 22.1711C83.5575 21.9155 83.9477 21.7877 84.4171 21.7877C85.6395 21.7877 86.2508 22.6089 86.2508 24.2515V30.0767H89.8854V23.8273C89.8854 22.2173 89.5034 20.9963 88.7393 20.1641C87.9753 19.3319 86.9657 18.9159 85.7105 18.9159C84.3025 18.9159 83.2055 19.5196 82.4197 20.727V20.7597H82.4033L82.4197 20.727V19.1769H78.7851C78.8069 19.525 78.8178 20.6074 78.8178 22.424C78.8178 24.2406 78.8069 26.7915 78.7851 30.0767Z" fill="#1C3F39"/>
</svg>
