<svg width="271" height="40" viewBox="0 0 271 40" fill="none" xmlns="http://www.w3.org/2000/svg">
<rect width="135" height="40" rx="5" fill="white"/>
<path d="M68.136 21.7511C65.784 21.7511 63.867 23.5401 63.867 26.0041C63.867 28.4531 65.784 30.2571 68.136 30.2571C70.489 30.2571 72.406 28.4531 72.406 26.0041C72.405 23.5401 70.488 21.7511 68.136 21.7511ZM68.136 28.5831C66.847 28.5831 65.736 27.5201 65.736 26.0051C65.736 24.4741 66.848 23.4271 68.136 23.4271C69.425 23.4271 70.536 24.4741 70.536 26.0051C70.536 27.5191 69.425 28.5831 68.136 28.5831ZM58.822 21.7511C56.47 21.7511 54.553 23.5401 54.553 26.0041C54.553 28.4531 56.47 30.2571 58.822 30.2571C61.175 30.2571 63.092 28.4531 63.092 26.0041C63.092 23.5401 61.175 21.7511 58.822 21.7511ZM58.822 28.5831C57.533 28.5831 56.422 27.5201 56.422 26.0051C56.422 24.4741 57.534 23.4271 58.822 23.4271C60.111 23.4271 61.222 24.4741 61.222 26.0051C61.223 27.5191 60.111 28.5831 58.822 28.5831ZM47.744 23.0571V24.8611H52.062C51.933 25.8761 51.595 26.6171 51.079 27.1321C50.451 27.7601 49.468 28.4531 47.744 28.4531C45.086 28.4531 43.008 26.3101 43.008 23.6521C43.008 20.9941 45.086 18.8511 47.744 18.8511C49.178 18.8511 50.225 19.4151 50.998 20.1401L52.271 18.8671C51.191 17.8361 49.758 17.0471 47.744 17.0471C44.103 17.0471 41.042 20.0111 41.042 23.6521C41.042 27.2931 44.103 30.2571 47.744 30.2571C49.709 30.2571 51.192 29.6121 52.351 28.4041C53.543 27.2121 53.914 25.5361 53.914 24.1831C53.914 23.7651 53.882 23.3781 53.817 23.0561H47.744V23.0571ZM93.052 24.4581C92.698 23.5081 91.618 21.7511 89.411 21.7511C87.22 21.7511 85.399 23.4751 85.399 26.0041C85.399 28.3881 87.204 30.2571 89.62 30.2571C91.569 30.2571 92.697 29.0651 93.165 28.3721L91.715 27.4051C91.232 28.1141 90.571 28.5811 89.62 28.5811C88.67 28.5811 87.993 28.1461 87.558 27.2921L93.245 24.9401L93.052 24.4581ZM87.252 25.8761C87.204 24.2321 88.525 23.3951 89.476 23.3951C90.217 23.3951 90.845 23.7661 91.055 24.2971L87.252 25.8761ZM82.629 30.0001H84.497V17.4991H82.629V30.0001ZM79.567 22.7021H79.503C79.084 22.2021 78.278 21.7511 77.264 21.7511C75.137 21.7511 73.188 23.6201 73.188 26.0211C73.188 28.4051 75.137 30.2581 77.264 30.2581C78.279 30.2581 79.084 29.8071 79.503 29.2921H79.567V29.9041C79.567 31.5311 78.697 32.4011 77.296 32.4011C76.152 32.4011 75.443 31.5801 75.153 30.8871L73.526 31.5641C73.993 32.6911 75.233 34.0771 77.296 34.0771C79.487 34.0771 81.34 32.7881 81.34 29.6461V22.0101H79.568V22.7021H79.567ZM77.425 28.5831C76.136 28.5831 75.057 27.5031 75.057 26.0211C75.057 24.5221 76.136 23.4271 77.425 23.4271C78.697 23.4271 79.696 24.5221 79.696 26.0211C79.696 27.5031 78.697 28.5831 77.425 28.5831ZM101.806 17.4991H97.335V30.0001H99.2V25.2641H101.805C103.873 25.2641 105.907 23.7671 105.907 21.3821C105.907 18.9971 103.874 17.4991 101.806 17.4991ZM101.854 23.5241H99.2V19.2391H101.854C103.249 19.2391 104.041 20.3941 104.041 21.3821C104.041 22.3501 103.249 23.5241 101.854 23.5241ZM113.386 21.7291C112.035 21.7291 110.636 22.3241 110.057 23.6431L111.713 24.3341C112.067 23.6431 112.727 23.4171 113.418 23.4171C114.383 23.4171 115.364 23.9961 115.38 25.0251V25.1541C115.042 24.9611 114.318 24.6721 113.434 24.6721C111.649 24.6721 109.831 25.6531 109.831 27.4861C109.831 29.1591 111.295 30.2361 112.935 30.2361C114.189 30.2361 114.881 29.6731 115.315 29.0131H115.379V29.9781H117.181V25.1851C117.182 22.9671 115.524 21.7291 113.386 21.7291ZM113.16 28.5801C112.55 28.5801 111.697 28.2741 111.697 27.5181C111.697 26.5531 112.759 26.1831 113.676 26.1831C114.495 26.1831 114.882 26.3601 115.38 26.6011C115.235 27.7601 114.238 28.5801 113.16 28.5801ZM123.743 22.0021L121.604 27.4221H121.54L119.32 22.0021H117.31L120.639 29.5771L118.741 33.7911H120.687L125.818 22.0021H123.743ZM106.937 30.0001H108.802V17.4991H106.937V30.0001Z" fill="#1C3F39"/>
<path d="M47.418 10.2429C47.418 11.0809 47.17 11.7479 46.673 12.2459C46.109 12.8379 45.3731 13.1339 44.4691 13.1339C43.6031 13.1339 42.8661 12.8339 42.2611 12.2339C41.6551 11.6329 41.3521 10.8889 41.3521 10.0009C41.3521 9.11194 41.6551 8.36794 42.2611 7.76794C42.8661 7.16694 43.6031 6.86694 44.4691 6.86694C44.8991 6.86694 45.3101 6.95094 45.7001 7.11794C46.0911 7.28594 46.4041 7.50894 46.6381 7.78794L46.111 8.31594C45.714 7.84094 45.167 7.60394 44.468 7.60394C43.836 7.60394 43.29 7.82594 42.829 8.26994C42.368 8.71394 42.1381 9.29094 42.1381 9.99994C42.1381 10.7089 42.368 11.2859 42.829 11.7299C43.29 12.1739 43.836 12.3959 44.468 12.3959C45.138 12.3959 45.6971 12.1729 46.1441 11.7259C46.4341 11.4349 46.602 11.0299 46.647 10.5109H44.468V9.78994H47.375C47.405 9.94694 47.418 10.0979 47.418 10.2429Z" fill="#1C3F39"/>
<path d="M52.0281 7.737H49.2961V9.639H51.7601V10.36H49.2961V12.262H52.0281V13H48.5251V7H52.0281V7.737Z" fill="#1C3F39"/>
<path d="M55.279 13H54.508V7.737H52.832V7H56.955V7.737H55.279V13Z" fill="#1C3F39"/>
<path d="M59.938 13V7H60.709V13H59.938Z" fill="#1C3F39"/>
<path d="M64.1281 13H63.3572V7.737H61.6812V7H65.8042V7.737H64.1281V13Z" fill="#1C3F39"/>
<path d="M73.6089 12.225C73.0189 12.831 72.2859 13.134 71.4089 13.134C70.5319 13.134 69.7989 12.831 69.2099 12.225C68.6199 11.619 68.3259 10.877 68.3259 9.99999C68.3259 9.12299 68.6199 8.38099 69.2099 7.77499C69.7989 7.16899 70.5319 6.86499 71.4089 6.86499C72.2809 6.86499 73.0129 7.16999 73.6049 7.77899C74.1969 8.38799 74.4929 9.12799 74.4929 9.99999C74.4929 10.877 74.1979 11.619 73.6089 12.225ZM69.7789 11.722C70.2229 12.172 70.7659 12.396 71.4089 12.396C72.0519 12.396 72.5959 12.171 73.0389 11.722C73.4829 11.272 73.7059 10.698 73.7059 9.99999C73.7059 9.30199 73.4829 8.72799 73.0389 8.27799C72.5959 7.82799 72.0519 7.60399 71.4089 7.60399C70.7659 7.60399 70.2229 7.82899 69.7789 8.27799C69.3359 8.72799 69.1129 9.30199 69.1129 9.99999C69.1129 10.698 69.3359 11.272 69.7789 11.722Z" fill="#1C3F39"/>
<path d="M75.5749 13V7H76.513L79.429 11.667H79.4619L79.429 10.511V7H80.1999V13H79.3949L76.344 8.106H76.3109L76.344 9.262V13H75.5749Z" fill="#1C3F39"/>
<path d="M47.418 10.2429C47.418 11.0809 47.17 11.7479 46.673 12.2459C46.109 12.8379 45.3731 13.1339 44.4691 13.1339C43.6031 13.1339 42.8661 12.8339 42.2611 12.2339C41.6551 11.6329 41.3521 10.8889 41.3521 10.0009C41.3521 9.11194 41.6551 8.36794 42.2611 7.76794C42.8661 7.16694 43.6031 6.86694 44.4691 6.86694C44.8991 6.86694 45.3101 6.95094 45.7001 7.11794C46.0911 7.28594 46.4041 7.50894 46.6381 7.78794L46.111 8.31594C45.714 7.84094 45.167 7.60394 44.468 7.60394C43.836 7.60394 43.29 7.82594 42.829 8.26994C42.368 8.71394 42.1381 9.29094 42.1381 9.99994C42.1381 10.7089 42.368 11.2859 42.829 11.7299C43.29 12.1739 43.836 12.3959 44.468 12.3959C45.138 12.3959 45.6971 12.1729 46.1441 11.7259C46.4341 11.4349 46.602 11.0299 46.647 10.5109H44.468V9.78994H47.375C47.405 9.94694 47.418 10.0979 47.418 10.2429Z" stroke="#1C3F39" stroke-width="0.2" stroke-miterlimit="10"/>
<path d="M52.0281 7.737H49.2961V9.639H51.7601V10.36H49.2961V12.262H52.0281V13H48.5251V7H52.0281V7.737Z" stroke="#1C3F39" stroke-width="0.2" stroke-miterlimit="10"/>
<path d="M55.279 13H54.508V7.737H52.832V7H56.955V7.737H55.279V13Z" stroke="#1C3F39" stroke-width="0.2" stroke-miterlimit="10"/>
<path d="M59.938 13V7H60.709V13H59.938Z" stroke="#1C3F39" stroke-width="0.2" stroke-miterlimit="10"/>
<path d="M64.1281 13H63.3572V7.737H61.6812V7H65.8042V7.737H64.1281V13Z" stroke="#1C3F39" stroke-width="0.2" stroke-miterlimit="10"/>
<path d="M73.6089 12.225C73.0189 12.831 72.2859 13.134 71.4089 13.134C70.5319 13.134 69.7989 12.831 69.2099 12.225C68.6199 11.619 68.3259 10.877 68.3259 9.99999C68.3259 9.12299 68.6199 8.38099 69.2099 7.77499C69.7989 7.16899 70.5319 6.86499 71.4089 6.86499C72.2809 6.86499 73.0129 7.16999 73.6049 7.77899C74.1969 8.38799 74.4929 9.12799 74.4929 9.99999C74.4929 10.877 74.1979 11.619 73.6089 12.225ZM69.7789 11.722C70.2229 12.172 70.7659 12.396 71.4089 12.396C72.0519 12.396 72.5959 12.171 73.0389 11.722C73.4829 11.272 73.7059 10.698 73.7059 9.99999C73.7059 9.30199 73.4829 8.72799 73.0389 8.27799C72.5959 7.82799 72.0519 7.60399 71.4089 7.60399C70.7659 7.60399 70.2229 7.82899 69.7789 8.27799C69.3359 8.72799 69.1129 9.30199 69.1129 9.99999C69.1129 10.698 69.3359 11.272 69.7789 11.722Z" stroke="#1C3F39" stroke-width="0.2" stroke-miterlimit="10"/>
<path d="M75.5749 13V7H76.513L79.429 11.667H79.4619L79.429 10.511V7H80.1999V13H79.3949L76.344 8.106H76.3109L76.344 9.262V13H75.5749Z" stroke="#1C3F39" stroke-width="0.2" stroke-miterlimit="10"/>
<g filter="url(#filter0_ii_2_77)">
<path d="M10.436 7.53784C10.145 7.84584 9.97302 8.32384 9.97302 8.94284V31.0588C9.97302 31.6788 10.145 32.1558 10.436 32.4638L10.51 32.5358L22.899 20.1468V20.0008V19.8548L10.51 7.46484L10.436 7.53784Z" fill="url(#paint0_linear_2_77)"/>
<path d="M27.028 24.2779L22.899 20.1469V20.0009V19.8549L27.029 15.7249L27.122 15.7779L32.015 18.5579C33.412 19.3519 33.412 20.6509 32.015 21.4459L27.122 24.2259L27.028 24.2779Z" fill="url(#paint1_linear_2_77)"/>
<g filter="url(#filter1_i_2_77)">
<path d="M27.122 24.225L22.898 20.001L10.436 32.464C10.896 32.952 11.657 33.012 12.514 32.526L27.122 24.225Z" fill="url(#paint2_linear_2_77)"/>
</g>
<path d="M27.122 15.7769L12.514 7.47694C11.657 6.98994 10.896 7.05094 10.436 7.53894L22.899 20.0019L27.122 15.7769Z" fill="url(#paint3_linear_2_77)"/>
</g>
<rect x="151" width="120" height="40" rx="7" fill="white"/>
<path d="M232.526 19.2009V21.4919H231.09V22.9943H232.526V28.0993C232.526 29.8425 233.314 30.5397 235.298 30.5397C235.647 30.5397 235.979 30.4982 236.27 30.4484V28.9626C236.02 28.9875 235.863 29.0041 235.589 29.0041C234.701 29.0041 234.311 28.589 234.311 27.6428V22.9943H236.27V21.4919H234.311V19.2009H232.526Z" fill="#1C3F39"/>
<path d="M241.323 30.6642C243.963 30.6642 245.582 28.8962 245.582 25.966C245.582 23.0524 243.955 21.2761 241.323 21.2761C238.684 21.2761 237.057 23.0524 237.057 25.966C237.057 28.8962 238.675 30.6642 241.323 30.6642ZM241.323 29.0788C239.771 29.0788 238.9 27.9416 238.9 25.966C238.9 24.007 239.771 22.8615 241.323 22.8615C242.867 22.8615 243.747 24.007 243.747 25.966C243.747 27.9333 242.867 29.0788 241.323 29.0788Z" fill="#1C3F39"/>
<path d="M246.967 30.4899H248.751V25.1525C248.751 23.8825 249.706 23.0275 251.059 23.0275C251.374 23.0275 251.906 23.0856 252.055 23.1354V21.3757C251.864 21.3259 251.524 21.301 251.258 21.301C250.079 21.301 249.075 21.9484 248.818 22.8366H248.685V21.4504H246.967V30.4899Z" fill="#1C3F39"/>
<path d="M256.486 22.7951C257.806 22.7951 258.669 23.7165 258.711 25.1359H254.145C254.245 23.7248 255.166 22.7951 256.486 22.7951ZM258.703 28.0495C258.371 28.7551 257.632 29.1452 256.553 29.1452C255.125 29.1452 254.204 28.1408 254.145 26.5554V26.4557H260.529V25.8332C260.529 22.9943 259.01 21.2761 256.495 21.2761C253.946 21.2761 252.328 23.1105 252.328 25.9992C252.328 28.8879 253.913 30.6642 256.503 30.6642C258.57 30.6642 260.014 29.6681 260.421 28.0495H258.703Z" fill="#1C3F39"/>
<path d="M220.822 27.1518C220.96 29.3715 222.81 30.791 225.563 30.791C228.505 30.791 230.346 29.3026 230.346 26.9281C230.346 25.0611 229.297 24.0287 226.75 23.435L225.382 23.0995C223.765 22.7209 223.111 22.2133 223.111 21.3272C223.111 20.2087 224.126 19.4774 225.649 19.4774C227.094 19.4774 228.092 20.1915 228.273 21.3358H230.148C230.037 19.2451 228.195 17.7739 225.675 17.7739C222.965 17.7739 221.158 19.2451 221.158 21.4562C221.158 23.2802 222.182 24.3642 224.427 24.889L226.027 25.2762C227.671 25.6633 228.393 26.2312 228.393 27.1776C228.393 28.2788 227.258 29.0789 225.709 29.0789C224.049 29.0789 222.896 28.3304 222.732 27.1518H220.822Z" fill="#1C3F39"/>
<path d="M202.335 21.301C201.106 21.301 200.044 21.9152 199.496 22.9445H199.363V21.4504H197.645V33.4948H199.43V29.1203H199.571C200.044 30.0749 201.065 30.6393 202.352 30.6393C204.634 30.6393 206.087 28.8381 206.087 25.966C206.087 23.0939 204.634 21.301 202.335 21.301ZM201.829 29.0373C200.334 29.0373 199.396 27.8586 199.396 25.9743C199.396 24.0817 200.334 22.903 201.837 22.903C203.348 22.903 204.252 24.0568 204.252 25.966C204.252 27.8835 203.348 29.0373 201.829 29.0373Z" fill="#1C3F39"/>
<path d="M212.332 21.301C211.103 21.301 210.041 21.9152 209.493 22.9445H209.36V21.4504H207.642V33.4948H209.426V29.1203H209.568C210.041 30.0749 211.062 30.6393 212.348 30.6393C214.631 30.6393 216.084 28.8381 216.084 25.966C216.084 23.0939 214.631 21.301 212.332 21.301ZM211.825 29.0373C210.331 29.0373 209.393 27.8586 209.393 25.9743C209.393 24.0817 210.331 22.903 211.834 22.903C213.344 22.903 214.249 24.0568 214.249 25.966C214.249 27.8835 213.344 29.0373 211.825 29.0373Z" fill="#1C3F39"/>
<path d="M194.443 30.4899H196.491L192.008 18.075H189.935L185.452 30.4899H187.431L188.575 27.1948H193.307L194.443 30.4899ZM190.873 20.3292H191.019L192.817 25.5773H189.066L190.873 20.3292Z" fill="#1C3F39"/>
<path d="M186.651 8.71094V14.7H188.813C190.598 14.7 191.632 13.6001 191.632 11.6868C191.632 9.80249 190.59 8.71094 188.813 8.71094H186.651ZM187.581 9.55762H188.71C189.951 9.55762 190.685 10.3462 190.685 11.6992C190.685 13.073 189.963 13.8533 188.71 13.8533H187.581V9.55762Z" fill="#1C3F39"/>
<path d="M194.797 14.7871C196.117 14.7871 196.926 13.9031 196.926 12.438C196.926 10.9812 196.112 10.093 194.797 10.093C193.477 10.093 192.663 10.9812 192.663 12.438C192.663 13.9031 193.473 14.7871 194.797 14.7871ZM194.797 13.9944C194.021 13.9944 193.585 13.4258 193.585 12.438C193.585 11.4585 194.021 10.8857 194.797 10.8857C195.569 10.8857 196.009 11.4585 196.009 12.438C196.009 13.4216 195.569 13.9944 194.797 13.9944Z" fill="#1C3F39"/>
<path d="M203.818 10.1802H202.926L202.12 13.6292H202.05L201.12 10.1802H200.265L199.336 13.6292H199.269L198.46 10.1802H197.555L198.8 14.7H199.717L200.647 11.3713H200.718L201.651 14.7H202.577L203.818 10.1802Z" fill="#1C3F39"/>
<path d="M204.846 14.7H205.738V12.0562C205.738 11.3506 206.157 10.9106 206.817 10.9106C207.477 10.9106 207.792 11.2717 207.792 11.998V14.7H208.685V11.7739C208.685 10.699 208.129 10.093 207.12 10.093C206.439 10.093 205.991 10.396 205.771 10.8982H205.705V10.1802H204.846V14.7Z" fill="#1C3F39"/>
<path d="M210.09 14.7H210.982V8.41626H210.09V14.7Z" fill="#1C3F39"/>
<path d="M214.338 14.7871C215.658 14.7871 216.468 13.9031 216.468 12.438C216.468 10.9812 215.654 10.093 214.338 10.093C213.019 10.093 212.205 10.9812 212.205 12.438C212.205 13.9031 213.014 14.7871 214.338 14.7871ZM214.338 13.9944C213.562 13.9944 213.126 13.4258 213.126 12.438C213.126 11.4585 213.562 10.8857 214.338 10.8857C215.11 10.8857 215.55 11.4585 215.55 12.438C215.55 13.4216 215.11 13.9944 214.338 13.9944Z" fill="#1C3F39"/>
<path d="M219.126 14.0234C218.641 14.0234 218.288 13.7869 218.288 13.3801C218.288 12.9817 218.57 12.77 219.193 12.7285L220.297 12.658V13.0356C220.297 13.5959 219.799 14.0234 219.126 14.0234ZM218.898 14.7747C219.492 14.7747 219.985 14.5173 220.255 14.0649H220.326V14.7H221.185V11.6121C221.185 10.6575 220.546 10.093 219.413 10.093C218.387 10.093 217.657 10.5911 217.566 11.3672H218.429C218.529 11.0476 218.873 10.865 219.371 10.865C219.981 10.865 220.297 11.1348 220.297 11.6121V12.0022L219.072 12.0728C217.997 12.1392 217.391 12.6082 217.391 13.4216C217.391 14.2476 218.026 14.7747 218.898 14.7747Z" fill="#1C3F39"/>
<path d="M224.213 14.7747C224.836 14.7747 225.363 14.48 225.632 13.9861H225.703V14.7H226.558V8.41626H225.666V10.8982H225.599C225.354 10.4001 224.831 10.1055 224.213 10.1055C223.072 10.1055 222.337 11.0103 222.337 12.438C222.337 13.8699 223.063 14.7747 224.213 14.7747ZM224.466 10.9065C225.213 10.9065 225.682 11.5 225.682 12.4421C225.682 13.3884 225.217 13.9736 224.466 13.9736C223.711 13.9736 223.258 13.3967 223.258 12.438C223.258 11.4875 223.715 10.9065 224.466 10.9065Z" fill="#1C3F39"/>
<path d="M232.344 14.7871C233.664 14.7871 234.474 13.9031 234.474 12.438C234.474 10.9812 233.66 10.093 232.344 10.093C231.025 10.093 230.211 10.9812 230.211 12.438C230.211 13.9031 231.02 14.7871 232.344 14.7871ZM232.344 13.9944C231.568 13.9944 231.133 13.4258 231.133 12.438C231.133 11.4585 231.568 10.8857 232.344 10.8857C233.116 10.8857 233.556 11.4585 233.556 12.438C233.556 13.4216 233.116 13.9944 232.344 13.9944Z" fill="#1C3F39"/>
<path d="M235.655 14.7H236.547V12.0562C236.547 11.3506 236.966 10.9106 237.626 10.9106C238.286 10.9106 238.602 11.2717 238.602 11.998V14.7H239.494V11.7739C239.494 10.699 238.938 10.093 237.929 10.093C237.249 10.093 236.8 10.396 236.58 10.8982H236.514V10.1802H235.655V14.7Z" fill="#1C3F39"/>
<path d="M243.604 9.05542V10.2009H242.886V10.9521H243.604V13.5046C243.604 14.3762 243.998 14.7249 244.99 14.7249C245.164 14.7249 245.33 14.7041 245.475 14.6792V13.9363C245.351 13.9487 245.272 13.957 245.135 13.957C244.691 13.957 244.496 13.7495 244.496 13.2764V10.9521H245.475V10.2009H244.496V9.05542H243.604Z" fill="#1C3F39"/>
<path d="M246.673 14.7H247.566V12.0603C247.566 11.3755 247.972 10.9148 248.703 10.9148C249.334 10.9148 249.67 11.28 249.67 12.0022V14.7H250.562V11.7822C250.562 10.7073 249.969 10.0972 249.006 10.0972C248.325 10.0972 247.848 10.4001 247.628 10.9065H247.557V8.41626H246.673V14.7Z" fill="#1C3F39"/>
<path d="M253.781 10.8525C254.441 10.8525 254.873 11.3132 254.894 12.0229H252.611C252.661 11.3174 253.121 10.8525 253.781 10.8525ZM254.889 13.4797C254.723 13.8325 254.354 14.0276 253.814 14.0276C253.101 14.0276 252.64 13.5254 252.611 12.7327V12.6829H255.802V12.3716C255.802 10.9521 255.043 10.093 253.785 10.093C252.511 10.093 251.702 11.0103 251.702 12.4546C251.702 13.8989 252.495 14.7871 253.789 14.7871C254.823 14.7871 255.545 14.2891 255.748 13.4797H254.889Z" fill="#1C3F39"/>
<path d="M175.769 20.3008C175.791 18.6198 176.693 17.0292 178.126 16.1488C177.222 14.8584 175.709 14.0403 174.134 13.9911C172.455 13.8148 170.827 14.9959 169.971 14.9959C169.099 14.9959 167.782 14.0086 166.363 14.0378C164.514 14.0975 162.79 15.1489 161.89 16.7656C159.956 20.1141 161.399 25.0351 163.251 27.7417C164.178 29.0671 165.261 30.5475 166.679 30.495C168.066 30.4375 168.584 29.6105 170.258 29.6105C171.917 29.6105 172.403 30.495 173.849 30.4616C175.338 30.4375 176.275 29.1304 177.17 27.7925C177.836 26.8481 178.348 25.8044 178.688 24.7C176.939 23.9602 175.771 22.2 175.769 20.3008Z" fill="#1C3F39"/>
<path d="M173.037 12.2111C173.849 11.2369 174.249 9.98469 174.152 8.72046C172.912 8.85068 171.767 9.44324 170.944 10.3801C170.14 11.2954 169.721 12.5255 169.801 13.7415C171.041 13.7542 172.26 13.1777 173.037 12.2111Z" fill="#1C3F39"/>
<defs>
<filter id="filter0_ii_2_77" x="9.97302" y="7.14087" width="23.0898" height="25.7207" filterUnits="userSpaceOnUse" color-interpolation-filters="sRGB">
<feFlood flood-opacity="0" result="BackgroundImageFix"/>
<feBlend mode="normal" in="SourceGraphic" in2="BackgroundImageFix" result="shape"/>
<feColorMatrix in="SourceAlpha" type="matrix" values="0 0 0 0 0 0 0 0 0 0 0 0 0 0 0 0 0 0 127 0" result="hardAlpha"/>
<feOffset dy="-0.15"/>
<feComposite in2="hardAlpha" operator="arithmetic" k2="-1" k3="1"/>
<feColorMatrix type="matrix" values="0 0 0 0 0 0 0 0 0 0 0 0 0 0 0 0 0 0 0.12 0"/>
<feBlend mode="normal" in2="shape" result="effect1_innerShadow_2_77"/>
<feColorMatrix in="SourceAlpha" type="matrix" values="0 0 0 0 0 0 0 0 0 0 0 0 0 0 0 0 0 0 127 0" result="hardAlpha"/>
<feOffset dy="0.15"/>
<feComposite in2="hardAlpha" operator="arithmetic" k2="-1" k3="1"/>
<feColorMatrix type="matrix" values="0 0 0 0 1 0 0 0 0 1 0 0 0 0 1 0 0 0 0.25 0"/>
<feBlend mode="normal" in2="effect1_innerShadow_2_77" result="effect2_innerShadow_2_77"/>
</filter>
<filter id="filter1_i_2_77" x="10.436" y="20.001" width="16.686" height="12.8606" filterUnits="userSpaceOnUse" color-interpolation-filters="sRGB">
<feFlood flood-opacity="0" result="BackgroundImageFix"/>
<feBlend mode="normal" in="SourceGraphic" in2="BackgroundImageFix" result="shape"/>
<feColorMatrix in="SourceAlpha" type="matrix" values="0 0 0 0 0 0 0 0 0 0 0 0 0 0 0 0 0 0 127 0" result="hardAlpha"/>
<feOffset dy="-0.15"/>
<feComposite in2="hardAlpha" operator="arithmetic" k2="-1" k3="1"/>
<feColorMatrix type="matrix" values="0 0 0 0 0 0 0 0 0 0 0 0 0 0 0 0 0 0 0.08 0"/>
<feBlend mode="normal" in2="shape" result="effect1_innerShadow_2_77"/>
</filter>
<linearGradient id="paint0_linear_2_77" x1="21.8008" y1="8.70884" x2="5.01882" y2="25.4908" gradientUnits="userSpaceOnUse">
<stop stop-color="#00A0FF"/>
<stop offset="0.0066" stop-color="#00A1FF"/>
<stop offset="0.2601" stop-color="#00BEFF"/>
<stop offset="0.5122" stop-color="#00D2FF"/>
<stop offset="0.7604" stop-color="#00DFFF"/>
<stop offset="1" stop-color="#00E3FF"/>
</linearGradient>
<linearGradient id="paint1_linear_2_77" x1="33.8335" y1="20.0009" x2="9.63765" y2="20.0009" gradientUnits="userSpaceOnUse">
<stop stop-color="#FFE000"/>
<stop offset="0.4087" stop-color="#FFBD00"/>
<stop offset="0.7754" stop-color="#FFA500"/>
<stop offset="1" stop-color="#FF9C00"/>
</linearGradient>
<linearGradient id="paint2_linear_2_77" x1="24.8281" y1="22.2949" x2="2.06964" y2="45.0534" gradientUnits="userSpaceOnUse">
<stop stop-color="#FF3A44"/>
<stop offset="1" stop-color="#C31162"/>
</linearGradient>
<linearGradient id="paint3_linear_2_77" x1="7.29743" y1="0.176745" x2="17.4597" y2="10.339" gradientUnits="userSpaceOnUse">
<stop stop-color="#32A071"/>
<stop offset="0.0685" stop-color="#2DA771"/>
<stop offset="0.4762" stop-color="#15CF74"/>
<stop offset="0.8009" stop-color="#06E775"/>
<stop offset="1" stop-color="#00F076"/>
</linearGradient>
</defs>
</svg>
